<?xml version="1.0" encoding="utf-8" standalone="no"?>
<!DOCTYPE svg PUBLIC "-//W3C//DTD SVG 1.1//EN"
  "http://www.w3.org/Graphics/SVG/1.1/DTD/svg11.dtd">
<!-- Created with matplotlib (http://matplotlib.org/) -->
<svg height="1224pt" version="1.1" viewBox="0 0 2880 1224" width="2880pt" xmlns="http://www.w3.org/2000/svg" xmlns:xlink="http://www.w3.org/1999/xlink">
 <defs>
  <style type="text/css">
*{stroke-linecap:butt;stroke-linejoin:round;}
  </style>
 </defs>
 <g id="figure_1">
  <g id="patch_1">
   <path d="M 0 1224 
L 2880 1224 
L 2880 0 
L 0 0 
z
" style="fill:#ffffff;"/>
  </g>
  <g id="axes_1">
   <g id="patch_2">
    <path d="M 102.905 1119.48 
L 1432.9225 1119.48 
L 1432.9225 148.2 
L 102.905 148.2 
z
" style="fill:#ffffff;"/>
   </g>
   <g id="matplotlib.axis_1">
    <g id="xtick_1">
     <g id="text_1">
      <!-- ba -->
      <defs>
       <path d="M 48.6875 27.296875 
Q 48.6875 37.203125 44.609375 42.84375 
Q 40.53125 48.484375 33.40625 48.484375 
Q 26.265625 48.484375 22.1875 42.84375 
Q 18.109375 37.203125 18.109375 27.296875 
Q 18.109375 17.390625 22.1875 11.75 
Q 26.265625 6.109375 33.40625 6.109375 
Q 40.53125 6.109375 44.609375 11.75 
Q 48.6875 17.390625 48.6875 27.296875 
z
M 18.109375 46.390625 
Q 20.953125 51.265625 25.265625 53.625 
Q 29.59375 56 35.59375 56 
Q 45.5625 56 51.78125 48.09375 
Q 58.015625 40.1875 58.015625 27.296875 
Q 58.015625 14.40625 51.78125 6.484375 
Q 45.5625 -1.421875 35.59375 -1.421875 
Q 29.59375 -1.421875 25.265625 0.953125 
Q 20.953125 3.328125 18.109375 8.203125 
L 18.109375 0 
L 9.078125 0 
L 9.078125 75.984375 
L 18.109375 75.984375 
z
" id="DejaVuSans-62"/>
       <path d="M 34.28125 27.484375 
Q 23.390625 27.484375 19.1875 25 
Q 14.984375 22.515625 14.984375 16.5 
Q 14.984375 11.71875 18.140625 8.90625 
Q 21.296875 6.109375 26.703125 6.109375 
Q 34.1875 6.109375 38.703125 11.40625 
Q 43.21875 16.703125 43.21875 25.484375 
L 43.21875 27.484375 
z
M 52.203125 31.203125 
L 52.203125 0 
L 43.21875 0 
L 43.21875 8.296875 
Q 40.140625 3.328125 35.546875 0.953125 
Q 30.953125 -1.421875 24.3125 -1.421875 
Q 15.921875 -1.421875 10.953125 3.296875 
Q 6 8.015625 6 15.921875 
Q 6 25.140625 12.171875 29.828125 
Q 18.359375 34.515625 30.609375 34.515625 
L 43.21875 34.515625 
L 43.21875 35.40625 
Q 43.21875 41.609375 39.140625 45 
Q 35.0625 48.390625 27.6875 48.390625 
Q 23 48.390625 18.546875 47.265625 
Q 14.109375 46.140625 10.015625 43.890625 
L 10.015625 52.203125 
Q 14.9375 54.109375 19.578125 55.046875 
Q 24.21875 56 28.609375 56 
Q 40.484375 56 46.34375 49.84375 
Q 52.203125 43.703125 52.203125 31.203125 
z
" id="DejaVuSans-61"/>
      </defs>
      <g transform="translate(118.566789 1150.035156)scale(0.31 -0.31)">
       <use xlink:href="#DejaVuSans-62"/>
       <use x="63.476562" xlink:href="#DejaVuSans-61"/>
      </g>
     </g>
    </g>
    <g id="xtick_2">
     <g id="text_2">
      <!-- ay -->
      <defs>
       <path d="M 32.171875 -5.078125 
Q 28.375 -14.84375 24.75 -17.8125 
Q 21.140625 -20.796875 15.09375 -20.796875 
L 7.90625 -20.796875 
L 7.90625 -13.28125 
L 13.1875 -13.28125 
Q 16.890625 -13.28125 18.9375 -11.515625 
Q 21 -9.765625 23.484375 -3.21875 
L 25.09375 0.875 
L 2.984375 54.6875 
L 12.5 54.6875 
L 29.59375 11.921875 
L 46.6875 54.6875 
L 56.203125 54.6875 
z
" id="DejaVuSans-79"/>
      </defs>
      <g transform="translate(189.233725 1150.035156)scale(0.31 -0.31)">
       <use xlink:href="#DejaVuSans-61"/>
       <use x="61.279297" xlink:href="#DejaVuSans-79"/>
      </g>
     </g>
    </g>
    <g id="xtick_3">
     <g id="text_3">
      <!-- om -->
      <defs>
       <path d="M 30.609375 48.390625 
Q 23.390625 48.390625 19.1875 42.75 
Q 14.984375 37.109375 14.984375 27.296875 
Q 14.984375 17.484375 19.15625 11.84375 
Q 23.34375 6.203125 30.609375 6.203125 
Q 37.796875 6.203125 41.984375 11.859375 
Q 46.1875 17.53125 46.1875 27.296875 
Q 46.1875 37.015625 41.984375 42.703125 
Q 37.796875 48.390625 30.609375 48.390625 
z
M 30.609375 56 
Q 42.328125 56 49.015625 48.375 
Q 55.71875 40.765625 55.71875 27.296875 
Q 55.71875 13.875 49.015625 6.21875 
Q 42.328125 -1.421875 30.609375 -1.421875 
Q 18.84375 -1.421875 12.171875 6.21875 
Q 5.515625 13.875 5.515625 27.296875 
Q 5.515625 40.765625 12.171875 48.375 
Q 18.84375 56 30.609375 56 
z
" id="DejaVuSans-6f"/>
       <path d="M 52 44.1875 
Q 55.375 50.25 60.0625 53.125 
Q 64.75 56 71.09375 56 
Q 79.640625 56 84.28125 50.015625 
Q 88.921875 44.046875 88.921875 33.015625 
L 88.921875 0 
L 79.890625 0 
L 79.890625 32.71875 
Q 79.890625 40.578125 77.09375 44.375 
Q 74.3125 48.1875 68.609375 48.1875 
Q 61.625 48.1875 57.5625 43.546875 
Q 53.515625 38.921875 53.515625 30.90625 
L 53.515625 0 
L 44.484375 0 
L 44.484375 32.71875 
Q 44.484375 40.625 41.703125 44.40625 
Q 38.921875 48.1875 33.109375 48.1875 
Q 26.21875 48.1875 22.15625 43.53125 
Q 18.109375 38.875 18.109375 30.90625 
L 18.109375 0 
L 9.078125 0 
L 9.078125 54.6875 
L 18.109375 54.6875 
L 18.109375 46.1875 
Q 21.1875 51.21875 25.484375 53.609375 
Q 29.78125 56 35.6875 56 
Q 41.65625 56 45.828125 52.96875 
Q 50 49.953125 52 44.1875 
z
" id="DejaVuSans-6d"/>
      </defs>
      <g transform="translate(253.325271 1150.035156)scale(0.31 -0.31)">
       <use xlink:href="#DejaVuSans-6f"/>
       <use x="61.181641" xlink:href="#DejaVuSans-6d"/>
      </g>
     </g>
    </g>
    <g id="xtick_4">
     <g id="text_4">
      <!-- ho -->
      <defs>
       <path d="M 54.890625 33.015625 
L 54.890625 0 
L 45.90625 0 
L 45.90625 32.71875 
Q 45.90625 40.484375 42.875 44.328125 
Q 39.84375 48.1875 33.796875 48.1875 
Q 26.515625 48.1875 22.3125 43.546875 
Q 18.109375 38.921875 18.109375 30.90625 
L 18.109375 0 
L 9.078125 0 
L 9.078125 75.984375 
L 18.109375 75.984375 
L 18.109375 46.1875 
Q 21.34375 51.125 25.703125 53.5625 
Q 30.078125 56 35.796875 56 
Q 45.21875 56 50.046875 50.171875 
Q 54.890625 44.34375 54.890625 33.015625 
z
" id="DejaVuSans-68"/>
      </defs>
      <g transform="translate(328.601036 1150.035156)scale(0.31 -0.31)">
       <use xlink:href="#DejaVuSans-68"/>
       <use x="63.378906" xlink:href="#DejaVuSans-6f"/>
      </g>
     </g>
    </g>
    <g id="xtick_5">
     <g id="text_5">
      <!-- dy -->
      <defs>
       <path d="M 45.40625 46.390625 
L 45.40625 75.984375 
L 54.390625 75.984375 
L 54.390625 0 
L 45.40625 0 
L 45.40625 8.203125 
Q 42.578125 3.328125 38.25 0.953125 
Q 33.9375 -1.421875 27.875 -1.421875 
Q 17.96875 -1.421875 11.734375 6.484375 
Q 5.515625 14.40625 5.515625 27.296875 
Q 5.515625 40.1875 11.734375 48.09375 
Q 17.96875 56 27.875 56 
Q 33.9375 56 38.25 53.625 
Q 42.578125 51.265625 45.40625 46.390625 
z
M 14.796875 27.296875 
Q 14.796875 17.390625 18.875 11.75 
Q 22.953125 6.109375 30.078125 6.109375 
Q 37.203125 6.109375 41.296875 11.75 
Q 45.40625 17.390625 45.40625 27.296875 
Q 45.40625 37.203125 41.296875 42.84375 
Q 37.203125 48.484375 30.078125 48.484375 
Q 22.953125 48.484375 18.875 42.84375 
Q 14.796875 37.203125 14.796875 27.296875 
z
" id="DejaVuSans-64"/>
      </defs>
      <g transform="translate(398.895004 1150.035156)scale(0.31 -0.31)">
       <use xlink:href="#DejaVuSans-64"/>
       <use x="63.476562" xlink:href="#DejaVuSans-79"/>
      </g>
     </g>
    </g>
    <g id="xtick_6">
     <g id="text_6">
      <!-- an -->
      <defs>
       <path d="M 54.890625 33.015625 
L 54.890625 0 
L 45.90625 0 
L 45.90625 32.71875 
Q 45.90625 40.484375 42.875 44.328125 
Q 39.84375 48.1875 33.796875 48.1875 
Q 26.515625 48.1875 22.3125 43.546875 
Q 18.109375 38.921875 18.109375 30.90625 
L 18.109375 0 
L 9.078125 0 
L 9.078125 54.6875 
L 18.109375 54.6875 
L 18.109375 46.1875 
Q 21.34375 51.125 25.703125 53.5625 
Q 30.078125 56 35.796875 56 
Q 45.21875 56 50.046875 50.171875 
Q 54.890625 44.34375 54.890625 33.015625 
z
" id="DejaVuSans-6e"/>
      </defs>
      <g transform="translate(468.588347 1150.035156)scale(0.31 -0.31)">
       <use xlink:href="#DejaVuSans-61"/>
       <use x="61.279297" xlink:href="#DejaVuSans-6e"/>
      </g>
     </g>
    </g>
    <g id="xtick_7">
     <g id="text_7">
      <!-- so -->
      <defs>
       <path d="M 44.28125 53.078125 
L 44.28125 44.578125 
Q 40.484375 46.53125 36.375 47.5 
Q 32.28125 48.484375 27.875 48.484375 
Q 21.1875 48.484375 17.84375 46.4375 
Q 14.5 44.390625 14.5 40.28125 
Q 14.5 37.15625 16.890625 35.375 
Q 19.28125 33.59375 26.515625 31.984375 
L 29.59375 31.296875 
Q 39.15625 29.25 43.1875 25.515625 
Q 47.21875 21.78125 47.21875 15.09375 
Q 47.21875 7.46875 41.1875 3.015625 
Q 35.15625 -1.421875 24.609375 -1.421875 
Q 20.21875 -1.421875 15.453125 -0.5625 
Q 10.6875 0.296875 5.421875 2 
L 5.421875 11.28125 
Q 10.40625 8.6875 15.234375 7.390625 
Q 20.0625 6.109375 24.8125 6.109375 
Q 31.15625 6.109375 34.5625 8.28125 
Q 37.984375 10.453125 37.984375 14.40625 
Q 37.984375 18.0625 35.515625 20.015625 
Q 33.0625 21.96875 24.703125 23.78125 
L 21.578125 24.515625 
Q 13.234375 26.265625 9.515625 29.90625 
Q 5.8125 33.546875 5.8125 39.890625 
Q 5.8125 47.609375 11.28125 51.796875 
Q 16.75 56 26.8125 56 
Q 31.78125 56 36.171875 55.265625 
Q 40.578125 54.546875 44.28125 53.078125 
z
" id="DejaVuSans-73"/>
      </defs>
      <g transform="translate(540.352393 1150.035156)scale(0.31 -0.31)">
       <use xlink:href="#DejaVuSans-73"/>
       <use x="52.099609" xlink:href="#DejaVuSans-6f"/>
      </g>
     </g>
    </g>
    <g id="xtick_8">
     <g id="text_8">
      <!-- ya -->
      <g transform="translate(609.239252 1150.035156)scale(0.31 -0.31)">
       <use xlink:href="#DejaVuSans-79"/>
       <use x="59.179688" xlink:href="#DejaVuSans-61"/>
      </g>
     </g>
    </g>
    <g id="xtick_9">
     <g id="text_9">
      <!-- pa -->
      <defs>
       <path d="M 18.109375 8.203125 
L 18.109375 -20.796875 
L 9.078125 -20.796875 
L 9.078125 54.6875 
L 18.109375 54.6875 
L 18.109375 46.390625 
Q 20.953125 51.265625 25.265625 53.625 
Q 29.59375 56 35.59375 56 
Q 45.5625 56 51.78125 48.09375 
Q 58.015625 40.1875 58.015625 27.296875 
Q 58.015625 14.40625 51.78125 6.484375 
Q 45.5625 -1.421875 35.59375 -1.421875 
Q 29.59375 -1.421875 25.265625 0.953125 
Q 20.953125 3.328125 18.109375 8.203125 
z
M 48.6875 27.296875 
Q 48.6875 37.203125 44.609375 42.84375 
Q 40.53125 48.484375 33.40625 48.484375 
Q 26.265625 48.484375 22.1875 42.84375 
Q 18.109375 37.203125 18.109375 27.296875 
Q 18.109375 17.390625 22.1875 11.75 
Q 26.265625 6.109375 33.40625 6.109375 
Q 40.53125 6.109375 44.609375 11.75 
Q 48.6875 17.390625 48.6875 27.296875 
z
" id="DejaVuSans-70"/>
      </defs>
      <g transform="translate(678.574157 1150.035156)scale(0.31 -0.31)">
       <use xlink:href="#DejaVuSans-70"/>
       <use x="63.476562" xlink:href="#DejaVuSans-61"/>
      </g>
     </g>
    </g>
    <g id="xtick_10">
     <g id="text_10">
      <!-- op -->
      <g transform="translate(748.589609 1150.035156)scale(0.31 -0.31)">
       <use xlink:href="#DejaVuSans-6f"/>
       <use x="61.181641" xlink:href="#DejaVuSans-70"/>
      </g>
     </g>
    </g>
    <g id="xtick_11">
     <g id="text_11">
      <!-- dh -->
      <g transform="translate(818.251468 1150.035156)scale(0.31 -0.31)">
       <use xlink:href="#DejaVuSans-64"/>
       <use x="63.476562" xlink:href="#DejaVuSans-68"/>
      </g>
     </g>
    </g>
    <g id="xtick_12">
     <g id="text_12">
      <!-- hh -->
      <g transform="translate(888.269342 1150.035156)scale(0.31 -0.31)">
       <use xlink:href="#DejaVuSans-68"/>
       <use x="63.378906" xlink:href="#DejaVuSans-68"/>
      </g>
     </g>
    </g>
    <g id="xtick_13">
     <g id="text_13">
      <!-- m_ -->
      <defs>
       <path d="M 50.984375 -16.609375 
L 50.984375 -23.578125 
L -0.984375 -23.578125 
L -0.984375 -16.609375 
z
" id="DejaVuSans-5f"/>
      </defs>
      <g transform="translate(955.068544 1149.172969)scale(0.31 -0.31)">
       <use xlink:href="#DejaVuSans-6d"/>
       <use x="97.412109" xlink:href="#DejaVuSans-5f"/>
      </g>
     </g>
    </g>
    <g id="xtick_14">
     <g id="text_14">
      <!-- nd -->
      <g transform="translate(1028.254231 1150.035156)scale(0.31 -0.31)">
       <use xlink:href="#DejaVuSans-6e"/>
       <use x="63.378906" xlink:href="#DejaVuSans-64"/>
      </g>
     </g>
    </g>
    <g id="xtick_15">
     <g id="text_15">
      <!-- ad -->
      <g transform="translate(1098.579683 1150.035156)scale(0.31 -0.31)">
       <use xlink:href="#DejaVuSans-61"/>
       <use x="61.279297" xlink:href="#DejaVuSans-64"/>
      </g>
     </g>
    </g>
    <g id="xtick_16">
     <g id="text_16">
      <!-- oh -->
      <g transform="translate(1168.612089 1150.035156)scale(0.31 -0.31)">
       <use xlink:href="#DejaVuSans-6f"/>
       <use x="61.181641" xlink:href="#DejaVuSans-68"/>
      </g>
     </g>
    </g>
    <g id="xtick_17">
     <g id="text_17">
      <!-- hy -->
      <g transform="translate(1238.92301 1150.035156)scale(0.31 -0.31)">
       <use xlink:href="#DejaVuSans-68"/>
       <use x="63.378906" xlink:href="#DejaVuSans-79"/>
      </g>
     </g>
    </g>
    <g id="xtick_18">
     <g id="text_18">
      <!-- _b -->
      <g transform="translate(1310.33104 1150.035156)scale(0.31 -0.31)">
       <use xlink:href="#DejaVuSans-5f"/>
       <use x="50" xlink:href="#DejaVuSans-62"/>
      </g>
     </g>
    </g>
    <g id="xtick_19">
     <g id="text_19">
      <!-- yo -->
      <g transform="translate(1379.263914 1150.035156)scale(0.31 -0.31)">
       <use xlink:href="#DejaVuSans-79"/>
       <use x="59.179688" xlink:href="#DejaVuSans-6f"/>
      </g>
     </g>
    </g>
    <g id="text_20">
     <!-- key pair -->
     <defs>
      <path d="M 9.078125 75.984375 
L 18.109375 75.984375 
L 18.109375 31.109375 
L 44.921875 54.6875 
L 56.390625 54.6875 
L 27.390625 29.109375 
L 57.625 0 
L 45.90625 0 
L 18.109375 26.703125 
L 18.109375 0 
L 9.078125 0 
z
" id="DejaVuSans-6b"/>
      <path d="M 56.203125 29.59375 
L 56.203125 25.203125 
L 14.890625 25.203125 
Q 15.484375 15.921875 20.484375 11.0625 
Q 25.484375 6.203125 34.421875 6.203125 
Q 39.59375 6.203125 44.453125 7.46875 
Q 49.3125 8.734375 54.109375 11.28125 
L 54.109375 2.78125 
Q 49.265625 0.734375 44.1875 -0.34375 
Q 39.109375 -1.421875 33.890625 -1.421875 
Q 20.796875 -1.421875 13.15625 6.1875 
Q 5.515625 13.8125 5.515625 26.8125 
Q 5.515625 40.234375 12.765625 48.109375 
Q 20.015625 56 32.328125 56 
Q 43.359375 56 49.78125 48.890625 
Q 56.203125 41.796875 56.203125 29.59375 
z
M 47.21875 32.234375 
Q 47.125 39.59375 43.09375 43.984375 
Q 39.0625 48.390625 32.421875 48.390625 
Q 24.90625 48.390625 20.390625 44.140625 
Q 15.875 39.890625 15.1875 32.171875 
z
" id="DejaVuSans-65"/>
      <path id="DejaVuSans-20"/>
      <path d="M 9.421875 54.6875 
L 18.40625 54.6875 
L 18.40625 0 
L 9.421875 0 
z
M 9.421875 75.984375 
L 18.40625 75.984375 
L 18.40625 64.59375 
L 9.421875 64.59375 
z
" id="DejaVuSans-69"/>
      <path d="M 41.109375 46.296875 
Q 39.59375 47.171875 37.8125 47.578125 
Q 36.03125 48 33.890625 48 
Q 26.265625 48 22.1875 43.046875 
Q 18.109375 38.09375 18.109375 28.8125 
L 18.109375 0 
L 9.078125 0 
L 9.078125 54.6875 
L 18.109375 54.6875 
L 18.109375 46.1875 
Q 20.953125 51.171875 25.484375 53.578125 
Q 30.03125 56 36.53125 56 
Q 37.453125 56 38.578125 55.875 
Q 39.703125 55.765625 41.0625 55.515625 
z
" id="DejaVuSans-72"/>
     </defs>
     <g transform="translate(695.190938 1188.69875)scale(0.36 -0.36)">
      <use xlink:href="#DejaVuSans-6b"/>
      <use x="57.863281" xlink:href="#DejaVuSans-65"/>
      <use x="119.386719" xlink:href="#DejaVuSans-79"/>
      <use x="178.566406" xlink:href="#DejaVuSans-20"/>
      <use x="210.353516" xlink:href="#DejaVuSans-70"/>
      <use x="273.830078" xlink:href="#DejaVuSans-61"/>
      <use x="335.109375" xlink:href="#DejaVuSans-69"/>
      <use x="362.892578" xlink:href="#DejaVuSans-72"/>
     </g>
    </g>
   </g>
   <g id="matplotlib.axis_2">
    <g id="ytick_1">
     <g id="line2d_1">
      <defs>
       <path d="M 0 0 
L -3.5 0 
" id="m49bc92302b" style="stroke:#000000;stroke-width:0.8;"/>
      </defs>
      <g>
       <use style="stroke:#000000;stroke-width:0.8;" x="102.905" xlink:href="#m49bc92302b" y="1119.48"/>
      </g>
     </g>
     <g id="text_21">
      <!-- 0 -->
      <defs>
       <path d="M 31.78125 66.40625 
Q 24.171875 66.40625 20.328125 58.90625 
Q 16.5 51.421875 16.5 36.375 
Q 16.5 21.390625 20.328125 13.890625 
Q 24.171875 6.390625 31.78125 6.390625 
Q 39.453125 6.390625 43.28125 13.890625 
Q 47.125 21.390625 47.125 36.375 
Q 47.125 51.421875 43.28125 58.90625 
Q 39.453125 66.40625 31.78125 66.40625 
z
M 31.78125 74.21875 
Q 44.046875 74.21875 50.515625 64.515625 
Q 56.984375 54.828125 56.984375 36.375 
Q 56.984375 17.96875 50.515625 8.265625 
Q 44.046875 -1.421875 31.78125 -1.421875 
Q 19.53125 -1.421875 13.0625 8.265625 
Q 6.59375 17.96875 6.59375 36.375 
Q 6.59375 54.828125 13.0625 64.515625 
Q 19.53125 74.21875 31.78125 74.21875 
z
" id="DejaVuSans-30"/>
      </defs>
      <g transform="translate(85.725 1125.55875)scale(0.16 -0.16)">
       <use xlink:href="#DejaVuSans-30"/>
      </g>
     </g>
    </g>
    <g id="ytick_2">
     <g id="line2d_2">
      <g>
       <use style="stroke:#000000;stroke-width:0.8;" x="102.905" xlink:href="#m49bc92302b" y="905.282324"/>
      </g>
     </g>
     <g id="text_22">
      <!-- 2000 -->
      <defs>
       <path d="M 19.1875 8.296875 
L 53.609375 8.296875 
L 53.609375 0 
L 7.328125 0 
L 7.328125 8.296875 
Q 12.9375 14.109375 22.625 23.890625 
Q 32.328125 33.6875 34.8125 36.53125 
Q 39.546875 41.84375 41.421875 45.53125 
Q 43.3125 49.21875 43.3125 52.78125 
Q 43.3125 58.59375 39.234375 62.25 
Q 35.15625 65.921875 28.609375 65.921875 
Q 23.96875 65.921875 18.8125 64.3125 
Q 13.671875 62.703125 7.8125 59.421875 
L 7.8125 69.390625 
Q 13.765625 71.78125 18.9375 73 
Q 24.125 74.21875 28.421875 74.21875 
Q 39.75 74.21875 46.484375 68.546875 
Q 53.21875 62.890625 53.21875 53.421875 
Q 53.21875 48.921875 51.53125 44.890625 
Q 49.859375 40.875 45.40625 35.40625 
Q 44.1875 33.984375 37.640625 27.21875 
Q 31.109375 20.453125 19.1875 8.296875 
z
" id="DejaVuSans-32"/>
      </defs>
      <g transform="translate(55.185 911.361074)scale(0.16 -0.16)">
       <use xlink:href="#DejaVuSans-32"/>
       <use x="63.623047" xlink:href="#DejaVuSans-30"/>
       <use x="127.246094" xlink:href="#DejaVuSans-30"/>
       <use x="190.869141" xlink:href="#DejaVuSans-30"/>
      </g>
     </g>
    </g>
    <g id="ytick_3">
     <g id="line2d_3">
      <g>
       <use style="stroke:#000000;stroke-width:0.8;" x="102.905" xlink:href="#m49bc92302b" y="691.084649"/>
      </g>
     </g>
     <g id="text_23">
      <!-- 4000 -->
      <defs>
       <path d="M 37.796875 64.3125 
L 12.890625 25.390625 
L 37.796875 25.390625 
z
M 35.203125 72.90625 
L 47.609375 72.90625 
L 47.609375 25.390625 
L 58.015625 25.390625 
L 58.015625 17.1875 
L 47.609375 17.1875 
L 47.609375 0 
L 37.796875 0 
L 37.796875 17.1875 
L 4.890625 17.1875 
L 4.890625 26.703125 
z
" id="DejaVuSans-34"/>
      </defs>
      <g transform="translate(55.185 697.163399)scale(0.16 -0.16)">
       <use xlink:href="#DejaVuSans-34"/>
       <use x="63.623047" xlink:href="#DejaVuSans-30"/>
       <use x="127.246094" xlink:href="#DejaVuSans-30"/>
       <use x="190.869141" xlink:href="#DejaVuSans-30"/>
      </g>
     </g>
    </g>
    <g id="ytick_4">
     <g id="line2d_4">
      <g>
       <use style="stroke:#000000;stroke-width:0.8;" x="102.905" xlink:href="#m49bc92302b" y="476.886973"/>
      </g>
     </g>
     <g id="text_24">
      <!-- 6000 -->
      <defs>
       <path d="M 33.015625 40.375 
Q 26.375 40.375 22.484375 35.828125 
Q 18.609375 31.296875 18.609375 23.390625 
Q 18.609375 15.53125 22.484375 10.953125 
Q 26.375 6.390625 33.015625 6.390625 
Q 39.65625 6.390625 43.53125 10.953125 
Q 47.40625 15.53125 47.40625 23.390625 
Q 47.40625 31.296875 43.53125 35.828125 
Q 39.65625 40.375 33.015625 40.375 
z
M 52.59375 71.296875 
L 52.59375 62.3125 
Q 48.875 64.0625 45.09375 64.984375 
Q 41.3125 65.921875 37.59375 65.921875 
Q 27.828125 65.921875 22.671875 59.328125 
Q 17.53125 52.734375 16.796875 39.40625 
Q 19.671875 43.65625 24.015625 45.921875 
Q 28.375 48.1875 33.59375 48.1875 
Q 44.578125 48.1875 50.953125 41.515625 
Q 57.328125 34.859375 57.328125 23.390625 
Q 57.328125 12.15625 50.6875 5.359375 
Q 44.046875 -1.421875 33.015625 -1.421875 
Q 20.359375 -1.421875 13.671875 8.265625 
Q 6.984375 17.96875 6.984375 36.375 
Q 6.984375 53.65625 15.1875 63.9375 
Q 23.390625 74.21875 37.203125 74.21875 
Q 40.921875 74.21875 44.703125 73.484375 
Q 48.484375 72.75 52.59375 71.296875 
z
" id="DejaVuSans-36"/>
      </defs>
      <g transform="translate(55.185 482.965723)scale(0.16 -0.16)">
       <use xlink:href="#DejaVuSans-36"/>
       <use x="63.623047" xlink:href="#DejaVuSans-30"/>
       <use x="127.246094" xlink:href="#DejaVuSans-30"/>
       <use x="190.869141" xlink:href="#DejaVuSans-30"/>
      </g>
     </g>
    </g>
    <g id="ytick_5">
     <g id="line2d_5">
      <g>
       <use style="stroke:#000000;stroke-width:0.8;" x="102.905" xlink:href="#m49bc92302b" y="262.689297"/>
      </g>
     </g>
     <g id="text_25">
      <!-- 8000 -->
      <defs>
       <path d="M 31.78125 34.625 
Q 24.75 34.625 20.71875 30.859375 
Q 16.703125 27.09375 16.703125 20.515625 
Q 16.703125 13.921875 20.71875 10.15625 
Q 24.75 6.390625 31.78125 6.390625 
Q 38.8125 6.390625 42.859375 10.171875 
Q 46.921875 13.96875 46.921875 20.515625 
Q 46.921875 27.09375 42.890625 30.859375 
Q 38.875 34.625 31.78125 34.625 
z
M 21.921875 38.8125 
Q 15.578125 40.375 12.03125 44.71875 
Q 8.5 49.078125 8.5 55.328125 
Q 8.5 64.0625 14.71875 69.140625 
Q 20.953125 74.21875 31.78125 74.21875 
Q 42.671875 74.21875 48.875 69.140625 
Q 55.078125 64.0625 55.078125 55.328125 
Q 55.078125 49.078125 51.53125 44.71875 
Q 48 40.375 41.703125 38.8125 
Q 48.828125 37.15625 52.796875 32.3125 
Q 56.78125 27.484375 56.78125 20.515625 
Q 56.78125 9.90625 50.3125 4.234375 
Q 43.84375 -1.421875 31.78125 -1.421875 
Q 19.734375 -1.421875 13.25 4.234375 
Q 6.78125 9.90625 6.78125 20.515625 
Q 6.78125 27.484375 10.78125 32.3125 
Q 14.796875 37.15625 21.921875 38.8125 
z
M 18.3125 54.390625 
Q 18.3125 48.734375 21.84375 45.5625 
Q 25.390625 42.390625 31.78125 42.390625 
Q 38.140625 42.390625 41.71875 45.5625 
Q 45.3125 48.734375 45.3125 54.390625 
Q 45.3125 60.0625 41.71875 63.234375 
Q 38.140625 66.40625 31.78125 66.40625 
Q 25.390625 66.40625 21.84375 63.234375 
Q 18.3125 60.0625 18.3125 54.390625 
z
" id="DejaVuSans-38"/>
      </defs>
      <g transform="translate(55.185 268.768047)scale(0.16 -0.16)">
       <use xlink:href="#DejaVuSans-38"/>
       <use x="63.623047" xlink:href="#DejaVuSans-30"/>
       <use x="127.246094" xlink:href="#DejaVuSans-30"/>
       <use x="190.869141" xlink:href="#DejaVuSans-30"/>
      </g>
     </g>
    </g>
    <g id="text_26">
     <!-- delay (ms) -->
     <defs>
      <path d="M 9.421875 75.984375 
L 18.40625 75.984375 
L 18.40625 0 
L 9.421875 0 
z
" id="DejaVuSans-6c"/>
      <path d="M 31 75.875 
Q 24.46875 64.65625 21.28125 53.65625 
Q 18.109375 42.671875 18.109375 31.390625 
Q 18.109375 20.125 21.3125 9.0625 
Q 24.515625 -2 31 -13.1875 
L 23.1875 -13.1875 
Q 15.875 -1.703125 12.234375 9.375 
Q 8.59375 20.453125 8.59375 31.390625 
Q 8.59375 42.28125 12.203125 53.3125 
Q 15.828125 64.359375 23.1875 75.875 
z
" id="DejaVuSans-28"/>
      <path d="M 8.015625 75.875 
L 15.828125 75.875 
Q 23.140625 64.359375 26.78125 53.3125 
Q 30.421875 42.28125 30.421875 31.390625 
Q 30.421875 20.453125 26.78125 9.375 
Q 23.140625 -1.703125 15.828125 -13.1875 
L 8.015625 -13.1875 
Q 14.5 -2 17.703125 9.0625 
Q 20.90625 20.125 20.90625 31.390625 
Q 20.90625 42.671875 17.703125 53.65625 
Q 14.5 64.65625 8.015625 75.875 
z
" id="DejaVuSans-29"/>
     </defs>
     <g transform="translate(43.698125 729.704063)rotate(-90)scale(0.36 -0.36)">
      <use xlink:href="#DejaVuSans-64"/>
      <use x="63.476562" xlink:href="#DejaVuSans-65"/>
      <use x="125" xlink:href="#DejaVuSans-6c"/>
      <use x="152.783203" xlink:href="#DejaVuSans-61"/>
      <use x="214.0625" xlink:href="#DejaVuSans-79"/>
      <use x="273.242188" xlink:href="#DejaVuSans-20"/>
      <use x="305.029297" xlink:href="#DejaVuSans-28"/>
      <use x="344.042969" xlink:href="#DejaVuSans-6d"/>
      <use x="441.455078" xlink:href="#DejaVuSans-73"/>
      <use x="493.554688" xlink:href="#DejaVuSans-29"/>
     </g>
    </g>
   </g>
   <g id="LineCollection_1">
    <path clip-path="url(#pb523e23339)" d="M 137.905461 1119.48 
L 137.905461 1103.794499 
L 207.906382 1103.794499 
L 207.906382 1119.48 
" style="fill:none;stroke:#008000;stroke-width:2.8;"/>
    <path clip-path="url(#pb523e23339)" d="M 347.908224 1119.48 
L 347.908224 1107.672869 
L 417.909145 1107.672869 
L 417.909145 1119.48 
" style="fill:none;stroke:#008000;stroke-width:2.8;"/>
    <path clip-path="url(#pb523e23339)" d="M 557.910987 1119.48 
L 557.910987 1096.752325 
L 627.911908 1096.752325 
L 627.911908 1119.48 
" style="fill:none;stroke:#008000;stroke-width:2.8;"/>
    <path clip-path="url(#pb523e23339)" d="M 487.910066 1119.48 
L 487.910066 1095.945289 
L 592.911447 1095.945289 
L 592.911447 1096.752325 
" style="fill:none;stroke:#008000;stroke-width:2.8;"/>
    <path clip-path="url(#pb523e23339)" d="M 382.908684 1107.672869 
L 382.908684 1089.660714 
L 540.410757 1089.660714 
L 540.410757 1095.945289 
" style="fill:none;stroke:#008000;stroke-width:2.8;"/>
    <path clip-path="url(#pb523e23339)" d="M 277.907303 1119.48 
L 277.907303 1087.802271 
L 461.65972 1087.802271 
L 461.65972 1089.660714 
" style="fill:none;stroke:#008000;stroke-width:2.8;"/>
    <path clip-path="url(#pb523e23339)" d="M 172.905921 1103.794499 
L 172.905921 1084.368728 
L 369.783512 1084.368728 
L 369.783512 1087.802271 
" style="fill:none;stroke:#008000;stroke-width:2.8;"/>
    <path clip-path="url(#pb523e23339)" d="M 767.91375 1119.48 
L 767.91375 1096.004091 
L 837.914671 1096.004091 
L 837.914671 1119.48 
" style="fill:none;stroke:#008000;stroke-width:2.8;"/>
    <path clip-path="url(#pb523e23339)" d="M 697.912829 1119.48 
L 697.912829 1079.872249 
L 802.914211 1079.872249 
L 802.914211 1096.004091 
" style="fill:none;stroke:#008000;stroke-width:2.8;"/>
    <path clip-path="url(#pb523e23339)" d="M 271.344716 1084.368728 
L 271.344716 1061.850674 
L 750.41352 1061.850674 
L 750.41352 1079.872249 
" style="fill:none;stroke:#008000;stroke-width:2.8;"/>
    <path clip-path="url(#pb523e23339)" d="M 907.915592 1119.48 
L 907.915592 1039.166939 
L 977.916513 1039.166939 
L 977.916513 1119.48 
" style="fill:none;stroke:#008000;stroke-width:2.8;"/>
    <path clip-path="url(#pb523e23339)" d="M 510.879118 1061.850674 
L 510.879118 1020.53157 
L 942.916053 1020.53157 
L 942.916053 1039.166939 
" style="fill:none;stroke:#008000;stroke-width:2.8;"/>
    <path clip-path="url(#pb523e23339)" d="M 1187.919276 1119.48 
L 1187.919276 1069.182641 
L 1257.920197 1069.182641 
L 1257.920197 1119.48 
" style="fill:none;stroke:#008000;stroke-width:2.8;"/>
    <path clip-path="url(#pb523e23339)" d="M 1117.918355 1119.48 
L 1117.918355 1034.800368 
L 1222.919737 1034.800368 
L 1222.919737 1069.182641 
" style="fill:none;stroke:#008000;stroke-width:2.8;"/>
    <path clip-path="url(#pb523e23339)" d="M 1047.917434 1119.48 
L 1047.917434 1017.550204 
L 1170.419046 1017.550204 
L 1170.419046 1034.800368 
" style="fill:none;stroke:#008000;stroke-width:2.8;"/>
    <path clip-path="url(#pb523e23339)" d="M 726.897585 1020.53157 
L 726.897585 1011.912879 
L 1109.16824 1011.912879 
L 1109.16824 1017.550204 
" style="fill:none;stroke:#008000;stroke-width:2.8;"/>
   </g>
   <g id="LineCollection_2">
    <path clip-path="url(#pb523e23339)" d="M 1327.921118 1119.48 
L 1327.921118 722.976409 
L 1397.922039 722.976409 
L 1397.922039 1119.48 
" style="fill:none;stroke:#ff0000;stroke-width:2.8;"/>
   </g>
   <g id="LineCollection_3">
    <path clip-path="url(#pb523e23339)" d="M 918.032913 1011.912879 
L 918.032913 194.451429 
L 1362.921579 194.451429 
L 1362.921579 722.976409 
" style="fill:none;stroke:#0000ff;stroke-width:2.8;"/>
   </g>
   <g id="patch_3">
    <path d="M 102.905 1119.48 
L 102.905 148.2 
" style="fill:none;stroke:#000000;stroke-linecap:square;stroke-linejoin:miter;stroke-width:0.8;"/>
   </g>
   <g id="patch_4">
    <path d="M 1432.9225 1119.48 
L 1432.9225 148.2 
" style="fill:none;stroke:#000000;stroke-linecap:square;stroke-linejoin:miter;stroke-width:0.8;"/>
   </g>
   <g id="patch_5">
    <path d="M 102.905 1119.48 
L 1432.9225 1119.48 
" style="fill:none;stroke:#000000;stroke-linecap:square;stroke-linejoin:miter;stroke-width:0.8;"/>
   </g>
   <g id="patch_6">
    <path d="M 102.905 148.2 
L 1432.9225 148.2 
" style="fill:none;stroke:#000000;stroke-linecap:square;stroke-linejoin:miter;stroke-width:0.8;"/>
   </g>
   <g id="text_27">
    <!-- cumulative delays -->
    <defs>
     <path d="M 48.78125 52.59375 
L 48.78125 44.1875 
Q 44.96875 46.296875 41.140625 47.34375 
Q 37.3125 48.390625 33.40625 48.390625 
Q 24.65625 48.390625 19.8125 42.84375 
Q 14.984375 37.3125 14.984375 27.296875 
Q 14.984375 17.28125 19.8125 11.734375 
Q 24.65625 6.203125 33.40625 6.203125 
Q 37.3125 6.203125 41.140625 7.25 
Q 44.96875 8.296875 48.78125 10.40625 
L 48.78125 2.09375 
Q 45.015625 0.34375 40.984375 -0.53125 
Q 36.96875 -1.421875 32.421875 -1.421875 
Q 20.0625 -1.421875 12.78125 6.34375 
Q 5.515625 14.109375 5.515625 27.296875 
Q 5.515625 40.671875 12.859375 48.328125 
Q 20.21875 56 33.015625 56 
Q 37.15625 56 41.109375 55.140625 
Q 45.0625 54.296875 48.78125 52.59375 
z
" id="DejaVuSans-63"/>
     <path d="M 8.5 21.578125 
L 8.5 54.6875 
L 17.484375 54.6875 
L 17.484375 21.921875 
Q 17.484375 14.15625 20.5 10.265625 
Q 23.53125 6.390625 29.59375 6.390625 
Q 36.859375 6.390625 41.078125 11.03125 
Q 45.3125 15.671875 45.3125 23.6875 
L 45.3125 54.6875 
L 54.296875 54.6875 
L 54.296875 0 
L 45.3125 0 
L 45.3125 8.40625 
Q 42.046875 3.421875 37.71875 1 
Q 33.40625 -1.421875 27.6875 -1.421875 
Q 18.265625 -1.421875 13.375 4.4375 
Q 8.5 10.296875 8.5 21.578125 
z
M 31.109375 56 
z
" id="DejaVuSans-75"/>
     <path d="M 18.3125 70.21875 
L 18.3125 54.6875 
L 36.8125 54.6875 
L 36.8125 47.703125 
L 18.3125 47.703125 
L 18.3125 18.015625 
Q 18.3125 11.328125 20.140625 9.421875 
Q 21.96875 7.515625 27.59375 7.515625 
L 36.8125 7.515625 
L 36.8125 0 
L 27.59375 0 
Q 17.1875 0 13.234375 3.875 
Q 9.28125 7.765625 9.28125 18.015625 
L 9.28125 47.703125 
L 2.6875 47.703125 
L 2.6875 54.6875 
L 9.28125 54.6875 
L 9.28125 70.21875 
z
" id="DejaVuSans-74"/>
     <path d="M 2.984375 54.6875 
L 12.5 54.6875 
L 29.59375 8.796875 
L 46.6875 54.6875 
L 56.203125 54.6875 
L 35.6875 0 
L 23.484375 0 
z
" id="DejaVuSans-76"/>
    </defs>
    <g transform="translate(603.565313 142.2)scale(0.36 -0.36)">
     <use xlink:href="#DejaVuSans-63"/>
     <use x="54.980469" xlink:href="#DejaVuSans-75"/>
     <use x="118.359375" xlink:href="#DejaVuSans-6d"/>
     <use x="215.771484" xlink:href="#DejaVuSans-75"/>
     <use x="279.150391" xlink:href="#DejaVuSans-6c"/>
     <use x="306.933594" xlink:href="#DejaVuSans-61"/>
     <use x="368.212891" xlink:href="#DejaVuSans-74"/>
     <use x="407.421875" xlink:href="#DejaVuSans-69"/>
     <use x="435.205078" xlink:href="#DejaVuSans-76"/>
     <use x="494.384766" xlink:href="#DejaVuSans-65"/>
     <use x="555.908203" xlink:href="#DejaVuSans-20"/>
     <use x="587.695312" xlink:href="#DejaVuSans-64"/>
     <use x="651.171875" xlink:href="#DejaVuSans-65"/>
     <use x="712.695312" xlink:href="#DejaVuSans-6c"/>
     <use x="740.478516" xlink:href="#DejaVuSans-61"/>
     <use x="801.757812" xlink:href="#DejaVuSans-79"/>
     <use x="860.9375" xlink:href="#DejaVuSans-73"/>
    </g>
   </g>
  </g>
  <g id="axes_2">
   <g id="patch_7">
    <path d="M 1529.2025 1119.48 
L 2859.22 1119.48 
L 2859.22 148.2 
L 1529.2025 148.2 
z
" style="fill:#ffffff;"/>
   </g>
   <g id="matplotlib.axis_3">
    <g id="xtick_20">
     <g id="text_28">
      <!-- m_ -->
      <g transform="translate(1541.354992 1149.172969)scale(0.31 -0.31)">
       <use xlink:href="#DejaVuSans-6d"/>
       <use x="97.412109" xlink:href="#DejaVuSans-5f"/>
      </g>
     </g>
    </g>
    <g id="xtick_21">
     <g id="text_29">
      <!-- nd -->
      <g transform="translate(1614.540678 1150.035156)scale(0.31 -0.31)">
       <use xlink:href="#DejaVuSans-6e"/>
       <use x="63.378906" xlink:href="#DejaVuSans-64"/>
      </g>
     </g>
    </g>
    <g id="xtick_22">
     <g id="text_30">
      <!-- ad -->
      <g transform="translate(1684.866131 1150.035156)scale(0.31 -0.31)">
       <use xlink:href="#DejaVuSans-61"/>
       <use x="61.279297" xlink:href="#DejaVuSans-64"/>
      </g>
     </g>
    </g>
    <g id="xtick_23">
     <g id="text_31">
      <!-- oh -->
      <g transform="translate(1754.898536 1150.035156)scale(0.31 -0.31)">
       <use xlink:href="#DejaVuSans-6f"/>
       <use x="61.181641" xlink:href="#DejaVuSans-68"/>
      </g>
     </g>
    </g>
    <g id="xtick_24">
     <g id="text_32">
      <!-- hy -->
      <g transform="translate(1825.209457 1150.035156)scale(0.31 -0.31)">
       <use xlink:href="#DejaVuSans-68"/>
       <use x="63.378906" xlink:href="#DejaVuSans-79"/>
      </g>
     </g>
    </g>
    <g id="xtick_25">
     <g id="text_33">
      <!-- hh -->
      <g transform="translate(1894.561316 1150.035156)scale(0.31 -0.31)">
       <use xlink:href="#DejaVuSans-68"/>
       <use x="63.378906" xlink:href="#DejaVuSans-68"/>
      </g>
     </g>
    </g>
    <g id="xtick_26">
     <g id="text_34">
      <!-- ba -->
      <g transform="translate(1964.869815 1150.035156)scale(0.31 -0.31)">
       <use xlink:href="#DejaVuSans-62"/>
       <use x="63.476562" xlink:href="#DejaVuSans-61"/>
      </g>
     </g>
    </g>
    <g id="xtick_27">
     <g id="text_35">
      <!-- pa -->
      <g transform="translate(2034.870736 1150.035156)scale(0.31 -0.31)">
       <use xlink:href="#DejaVuSans-70"/>
       <use x="63.476562" xlink:href="#DejaVuSans-61"/>
      </g>
     </g>
    </g>
    <g id="xtick_28">
     <g id="text_36">
      <!-- op -->
      <g transform="translate(2104.886188 1150.035156)scale(0.31 -0.31)">
       <use xlink:href="#DejaVuSans-6f"/>
       <use x="61.181641" xlink:href="#DejaVuSans-70"/>
      </g>
     </g>
    </g>
    <g id="xtick_29">
     <g id="text_37">
      <!-- dh -->
      <g transform="translate(2174.548047 1150.035156)scale(0.31 -0.31)">
       <use xlink:href="#DejaVuSans-64"/>
       <use x="63.476562" xlink:href="#DejaVuSans-68"/>
      </g>
     </g>
    </g>
    <g id="xtick_30">
     <g id="text_38">
      <!-- ho -->
      <g transform="translate(2244.904984 1150.035156)scale(0.31 -0.31)">
       <use xlink:href="#DejaVuSans-68"/>
       <use x="63.378906" xlink:href="#DejaVuSans-6f"/>
      </g>
     </g>
    </g>
    <g id="xtick_31">
     <g id="text_39">
      <!-- an -->
      <g transform="translate(2314.891373 1150.035156)scale(0.31 -0.31)">
       <use xlink:href="#DejaVuSans-61"/>
       <use x="61.279297" xlink:href="#DejaVuSans-6e"/>
      </g>
     </g>
    </g>
    <g id="xtick_32">
     <g id="text_40">
      <!-- ay -->
      <g transform="translate(2385.541357 1150.035156)scale(0.31 -0.31)">
       <use xlink:href="#DejaVuSans-61"/>
       <use x="61.279297" xlink:href="#DejaVuSans-79"/>
      </g>
     </g>
    </g>
    <g id="xtick_33">
     <g id="text_41">
      <!-- dy -->
      <g transform="translate(2455.200794 1150.035156)scale(0.31 -0.31)">
       <use xlink:href="#DejaVuSans-64"/>
       <use x="63.476562" xlink:href="#DejaVuSans-79"/>
      </g>
     </g>
    </g>
    <g id="xtick_34">
     <g id="text_42">
      <!-- so -->
      <g transform="translate(2526.657262 1150.035156)scale(0.31 -0.31)">
       <use xlink:href="#DejaVuSans-73"/>
       <use x="52.099609" xlink:href="#DejaVuSans-6f"/>
      </g>
     </g>
    </g>
    <g id="xtick_35">
     <g id="text_43">
      <!-- om -->
      <g transform="translate(2589.634745 1150.035156)scale(0.31 -0.31)">
       <use xlink:href="#DejaVuSans-6f"/>
       <use x="61.181641" xlink:href="#DejaVuSans-6d"/>
      </g>
     </g>
    </g>
    <g id="xtick_36">
     <g id="text_44">
      <!-- ya -->
      <g transform="translate(2665.545041 1150.035156)scale(0.31 -0.31)">
       <use xlink:href="#DejaVuSans-79"/>
       <use x="59.179688" xlink:href="#DejaVuSans-61"/>
      </g>
     </g>
    </g>
    <g id="xtick_37">
     <g id="text_45">
      <!-- _b -->
      <g transform="translate(2736.62854 1150.035156)scale(0.31 -0.31)">
       <use xlink:href="#DejaVuSans-5f"/>
       <use x="50" xlink:href="#DejaVuSans-62"/>
      </g>
     </g>
    </g>
    <g id="xtick_38">
     <g id="text_46">
      <!-- yo -->
      <g transform="translate(2805.561414 1150.035156)scale(0.31 -0.31)">
       <use xlink:href="#DejaVuSans-79"/>
       <use x="59.179688" xlink:href="#DejaVuSans-6f"/>
      </g>
     </g>
    </g>
    <g id="text_47">
     <!-- key pair -->
     <g transform="translate(2121.488438 1188.69875)scale(0.36 -0.36)">
      <use xlink:href="#DejaVuSans-6b"/>
      <use x="57.863281" xlink:href="#DejaVuSans-65"/>
      <use x="119.386719" xlink:href="#DejaVuSans-79"/>
      <use x="178.566406" xlink:href="#DejaVuSans-20"/>
      <use x="210.353516" xlink:href="#DejaVuSans-70"/>
      <use x="273.830078" xlink:href="#DejaVuSans-61"/>
      <use x="335.109375" xlink:href="#DejaVuSans-69"/>
      <use x="362.892578" xlink:href="#DejaVuSans-72"/>
     </g>
    </g>
   </g>
   <g id="matplotlib.axis_4">
    <g id="ytick_6">
     <g id="line2d_6">
      <g>
       <use style="stroke:#000000;stroke-width:0.8;" x="1529.2025" xlink:href="#m49bc92302b" y="1119.48"/>
      </g>
     </g>
     <g id="text_48">
      <!-- 0 -->
      <g transform="translate(1512.0225 1125.55875)scale(0.16 -0.16)">
       <use xlink:href="#DejaVuSans-30"/>
      </g>
     </g>
    </g>
    <g id="ytick_7">
     <g id="line2d_7">
      <g>
       <use style="stroke:#000000;stroke-width:0.8;" x="1529.2025" xlink:href="#m49bc92302b" y="1001.500971"/>
      </g>
     </g>
     <g id="text_49">
      <!-- 100 -->
      <defs>
       <path d="M 12.40625 8.296875 
L 28.515625 8.296875 
L 28.515625 63.921875 
L 10.984375 60.40625 
L 10.984375 69.390625 
L 28.421875 72.90625 
L 38.28125 72.90625 
L 38.28125 8.296875 
L 54.390625 8.296875 
L 54.390625 0 
L 12.40625 0 
z
" id="DejaVuSans-31"/>
      </defs>
      <g transform="translate(1491.6625 1007.579721)scale(0.16 -0.16)">
       <use xlink:href="#DejaVuSans-31"/>
       <use x="63.623047" xlink:href="#DejaVuSans-30"/>
       <use x="127.246094" xlink:href="#DejaVuSans-30"/>
      </g>
     </g>
    </g>
    <g id="ytick_8">
     <g id="line2d_8">
      <g>
       <use style="stroke:#000000;stroke-width:0.8;" x="1529.2025" xlink:href="#m49bc92302b" y="883.521941"/>
      </g>
     </g>
     <g id="text_50">
      <!-- 200 -->
      <g transform="translate(1491.6625 889.600691)scale(0.16 -0.16)">
       <use xlink:href="#DejaVuSans-32"/>
       <use x="63.623047" xlink:href="#DejaVuSans-30"/>
       <use x="127.246094" xlink:href="#DejaVuSans-30"/>
      </g>
     </g>
    </g>
    <g id="ytick_9">
     <g id="line2d_9">
      <g>
       <use style="stroke:#000000;stroke-width:0.8;" x="1529.2025" xlink:href="#m49bc92302b" y="765.542912"/>
      </g>
     </g>
     <g id="text_51">
      <!-- 300 -->
      <defs>
       <path d="M 40.578125 39.3125 
Q 47.65625 37.796875 51.625 33 
Q 55.609375 28.21875 55.609375 21.1875 
Q 55.609375 10.40625 48.1875 4.484375 
Q 40.765625 -1.421875 27.09375 -1.421875 
Q 22.515625 -1.421875 17.65625 -0.515625 
Q 12.796875 0.390625 7.625 2.203125 
L 7.625 11.71875 
Q 11.71875 9.328125 16.59375 8.109375 
Q 21.484375 6.890625 26.8125 6.890625 
Q 36.078125 6.890625 40.9375 10.546875 
Q 45.796875 14.203125 45.796875 21.1875 
Q 45.796875 27.640625 41.28125 31.265625 
Q 36.765625 34.90625 28.71875 34.90625 
L 20.21875 34.90625 
L 20.21875 43.015625 
L 29.109375 43.015625 
Q 36.375 43.015625 40.234375 45.921875 
Q 44.09375 48.828125 44.09375 54.296875 
Q 44.09375 59.90625 40.109375 62.90625 
Q 36.140625 65.921875 28.71875 65.921875 
Q 24.65625 65.921875 20.015625 65.03125 
Q 15.375 64.15625 9.8125 62.3125 
L 9.8125 71.09375 
Q 15.4375 72.65625 20.34375 73.4375 
Q 25.25 74.21875 29.59375 74.21875 
Q 40.828125 74.21875 47.359375 69.109375 
Q 53.90625 64.015625 53.90625 55.328125 
Q 53.90625 49.265625 50.4375 45.09375 
Q 46.96875 40.921875 40.578125 39.3125 
z
" id="DejaVuSans-33"/>
      </defs>
      <g transform="translate(1491.6625 771.621662)scale(0.16 -0.16)">
       <use xlink:href="#DejaVuSans-33"/>
       <use x="63.623047" xlink:href="#DejaVuSans-30"/>
       <use x="127.246094" xlink:href="#DejaVuSans-30"/>
      </g>
     </g>
    </g>
    <g id="ytick_10">
     <g id="line2d_10">
      <g>
       <use style="stroke:#000000;stroke-width:0.8;" x="1529.2025" xlink:href="#m49bc92302b" y="647.563883"/>
      </g>
     </g>
     <g id="text_52">
      <!-- 400 -->
      <g transform="translate(1491.6625 653.642633)scale(0.16 -0.16)">
       <use xlink:href="#DejaVuSans-34"/>
       <use x="63.623047" xlink:href="#DejaVuSans-30"/>
       <use x="127.246094" xlink:href="#DejaVuSans-30"/>
      </g>
     </g>
    </g>
    <g id="ytick_11">
     <g id="line2d_11">
      <g>
       <use style="stroke:#000000;stroke-width:0.8;" x="1529.2025" xlink:href="#m49bc92302b" y="529.584853"/>
      </g>
     </g>
     <g id="text_53">
      <!-- 500 -->
      <defs>
       <path d="M 10.796875 72.90625 
L 49.515625 72.90625 
L 49.515625 64.59375 
L 19.828125 64.59375 
L 19.828125 46.734375 
Q 21.96875 47.46875 24.109375 47.828125 
Q 26.265625 48.1875 28.421875 48.1875 
Q 40.625 48.1875 47.75 41.5 
Q 54.890625 34.8125 54.890625 23.390625 
Q 54.890625 11.625 47.5625 5.09375 
Q 40.234375 -1.421875 26.90625 -1.421875 
Q 22.3125 -1.421875 17.546875 -0.640625 
Q 12.796875 0.140625 7.71875 1.703125 
L 7.71875 11.625 
Q 12.109375 9.234375 16.796875 8.0625 
Q 21.484375 6.890625 26.703125 6.890625 
Q 35.15625 6.890625 40.078125 11.328125 
Q 45.015625 15.765625 45.015625 23.390625 
Q 45.015625 31 40.078125 35.4375 
Q 35.15625 39.890625 26.703125 39.890625 
Q 22.75 39.890625 18.8125 39.015625 
Q 14.890625 38.140625 10.796875 36.28125 
z
" id="DejaVuSans-35"/>
      </defs>
      <g transform="translate(1491.6625 535.663603)scale(0.16 -0.16)">
       <use xlink:href="#DejaVuSans-35"/>
       <use x="63.623047" xlink:href="#DejaVuSans-30"/>
       <use x="127.246094" xlink:href="#DejaVuSans-30"/>
      </g>
     </g>
    </g>
    <g id="ytick_12">
     <g id="line2d_12">
      <g>
       <use style="stroke:#000000;stroke-width:0.8;" x="1529.2025" xlink:href="#m49bc92302b" y="411.605824"/>
      </g>
     </g>
     <g id="text_54">
      <!-- 600 -->
      <g transform="translate(1491.6625 417.684574)scale(0.16 -0.16)">
       <use xlink:href="#DejaVuSans-36"/>
       <use x="63.623047" xlink:href="#DejaVuSans-30"/>
       <use x="127.246094" xlink:href="#DejaVuSans-30"/>
      </g>
     </g>
    </g>
    <g id="ytick_13">
     <g id="line2d_13">
      <g>
       <use style="stroke:#000000;stroke-width:0.8;" x="1529.2025" xlink:href="#m49bc92302b" y="293.626795"/>
      </g>
     </g>
     <g id="text_55">
      <!-- 700 -->
      <defs>
       <path d="M 8.203125 72.90625 
L 55.078125 72.90625 
L 55.078125 68.703125 
L 28.609375 0 
L 18.3125 0 
L 43.21875 64.59375 
L 8.203125 64.59375 
z
" id="DejaVuSans-37"/>
      </defs>
      <g transform="translate(1491.6625 299.705545)scale(0.16 -0.16)">
       <use xlink:href="#DejaVuSans-37"/>
       <use x="63.623047" xlink:href="#DejaVuSans-30"/>
       <use x="127.246094" xlink:href="#DejaVuSans-30"/>
      </g>
     </g>
    </g>
    <g id="ytick_14">
     <g id="line2d_14">
      <g>
       <use style="stroke:#000000;stroke-width:0.8;" x="1529.2025" xlink:href="#m49bc92302b" y="175.647765"/>
      </g>
     </g>
     <g id="text_56">
      <!-- 800 -->
      <g transform="translate(1491.6625 181.726515)scale(0.16 -0.16)">
       <use xlink:href="#DejaVuSans-38"/>
       <use x="63.623047" xlink:href="#DejaVuSans-30"/>
       <use x="127.246094" xlink:href="#DejaVuSans-30"/>
      </g>
     </g>
    </g>
    <g id="text_57">
     <!-- delay (ms) -->
     <g transform="translate(1480.175625 729.704063)rotate(-90)scale(0.36 -0.36)">
      <use xlink:href="#DejaVuSans-64"/>
      <use x="63.476562" xlink:href="#DejaVuSans-65"/>
      <use x="125" xlink:href="#DejaVuSans-6c"/>
      <use x="152.783203" xlink:href="#DejaVuSans-61"/>
      <use x="214.0625" xlink:href="#DejaVuSans-79"/>
      <use x="273.242188" xlink:href="#DejaVuSans-20"/>
      <use x="305.029297" xlink:href="#DejaVuSans-28"/>
      <use x="344.042969" xlink:href="#DejaVuSans-6d"/>
      <use x="441.455078" xlink:href="#DejaVuSans-73"/>
      <use x="493.554688" xlink:href="#DejaVuSans-29"/>
     </g>
    </g>
   </g>
   <g id="LineCollection_4">
    <path clip-path="url(#pb5ef2da91f)" d="M 1774.205724 1119.48 
L 1774.205724 1051.48067 
L 1844.206645 1051.48067 
L 1844.206645 1119.48 
" style="fill:none;stroke:#008000;stroke-width:2.8;"/>
    <path clip-path="url(#pb5ef2da91f)" d="M 1704.204803 1119.48 
L 1704.204803 1030.595504 
L 1809.206184 1030.595504 
L 1809.206184 1051.48067 
" style="fill:none;stroke:#008000;stroke-width:2.8;"/>
    <path clip-path="url(#pb5ef2da91f)" d="M 1634.203882 1119.48 
L 1634.203882 995.512163 
L 1756.705493 995.512163 
L 1756.705493 1030.595504 
" style="fill:none;stroke:#008000;stroke-width:2.8;"/>
    <path clip-path="url(#pb5ef2da91f)" d="M 2124.210329 1119.48 
L 2124.210329 1030.392161 
L 2194.21125 1030.392161 
L 2194.21125 1119.48 
" style="fill:none;stroke:#008000;stroke-width:2.8;"/>
    <path clip-path="url(#pb5ef2da91f)" d="M 2054.209408 1119.48 
L 2054.209408 1026.448467 
L 2159.210789 1026.448467 
L 2159.210789 1030.392161 
" style="fill:none;stroke:#008000;stroke-width:2.8;"/>
    <path clip-path="url(#pb5ef2da91f)" d="M 2614.216776 1119.48 
L 2614.216776 1052.149212 
L 2684.217697 1052.149212 
L 2684.217697 1119.48 
" style="fill:none;stroke:#008000;stroke-width:2.8;"/>
    <path clip-path="url(#pb5ef2da91f)" d="M 2544.215855 1119.48 
L 2544.215855 1042.938974 
L 2649.217237 1042.938974 
L 2649.217237 1052.149212 
" style="fill:none;stroke:#008000;stroke-width:2.8;"/>
    <path clip-path="url(#pb5ef2da91f)" d="M 2474.214934 1119.48 
L 2474.214934 1038.297053 
L 2596.716546 1038.297053 
L 2596.716546 1042.938974 
" style="fill:none;stroke:#008000;stroke-width:2.8;"/>
    <path clip-path="url(#pb5ef2da91f)" d="M 2404.214013 1119.48 
L 2404.214013 1030.30627 
L 2535.46574 1030.30627 
L 2535.46574 1038.297053 
" style="fill:none;stroke:#008000;stroke-width:2.8;"/>
    <path clip-path="url(#pb5ef2da91f)" d="M 2334.213092 1119.48 
L 2334.213092 1020.898655 
L 2469.839877 1020.898655 
L 2469.839877 1030.30627 
" style="fill:none;stroke:#008000;stroke-width:2.8;"/>
    <path clip-path="url(#pb5ef2da91f)" d="M 2264.212171 1119.48 
L 2264.212171 1015.631644 
L 2402.026484 1015.631644 
L 2402.026484 1020.898655 
" style="fill:none;stroke:#008000;stroke-width:2.8;"/>
    <path clip-path="url(#pb5ef2da91f)" d="M 2106.710099 1026.448467 
L 2106.710099 1005.479043 
L 2333.119328 1005.479043 
L 2333.119328 1015.631644 
" style="fill:none;stroke:#008000;stroke-width:2.8;"/>
    <path clip-path="url(#pb5ef2da91f)" d="M 1984.208487 1119.48 
L 1984.208487 1004.053331 
L 2219.914713 1004.053331 
L 2219.914713 1005.479043 
" style="fill:none;stroke:#008000;stroke-width:2.8;"/>
    <path clip-path="url(#pb5ef2da91f)" d="M 1914.207566 1119.48 
L 1914.207566 976.131838 
L 2102.0616 976.131838 
L 2102.0616 1004.053331 
" style="fill:none;stroke:#008000;stroke-width:2.8;"/>
    <path clip-path="url(#pb5ef2da91f)" d="M 1695.454688 995.512163 
L 1695.454688 956.686039 
L 2008.134583 956.686039 
L 2008.134583 976.131838 
" style="fill:none;stroke:#008000;stroke-width:2.8;"/>
    <path clip-path="url(#pb5ef2da91f)" d="M 1564.202961 1119.48 
L 1564.202961 756.022244 
L 1851.794635 756.022244 
L 1851.794635 956.686039 
" style="fill:none;stroke:#008000;stroke-width:2.8;"/>
   </g>
   <g id="LineCollection_5">
    <path clip-path="url(#pb5ef2da91f)" d="M 2754.218618 1119.48 
L 2754.218618 494.383725 
L 2824.219539 494.383725 
L 2824.219539 1119.48 
" style="fill:none;stroke:#ff0000;stroke-width:2.8;"/>
   </g>
   <g id="LineCollection_6">
    <path clip-path="url(#pb5ef2da91f)" d="M 1707.998798 756.022244 
L 1707.998798 194.451429 
L 2789.219079 194.451429 
L 2789.219079 494.383725 
" style="fill:none;stroke:#0000ff;stroke-width:2.8;"/>
   </g>
   <g id="patch_8">
    <path d="M 1529.2025 1119.48 
L 1529.2025 148.2 
" style="fill:none;stroke:#000000;stroke-linecap:square;stroke-linejoin:miter;stroke-width:0.8;"/>
   </g>
   <g id="patch_9">
    <path d="M 2859.22 1119.48 
L 2859.22 148.2 
" style="fill:none;stroke:#000000;stroke-linecap:square;stroke-linejoin:miter;stroke-width:0.8;"/>
   </g>
   <g id="patch_10">
    <path d="M 1529.2025 1119.48 
L 2859.22 1119.48 
" style="fill:none;stroke:#000000;stroke-linecap:square;stroke-linejoin:miter;stroke-width:0.8;"/>
   </g>
   <g id="patch_11">
    <path d="M 1529.2025 148.2 
L 2859.22 148.2 
" style="fill:none;stroke:#000000;stroke-linecap:square;stroke-linejoin:miter;stroke-width:0.8;"/>
   </g>
   <g id="text_58">
    <!-- raw delays -->
    <defs>
     <path d="M 4.203125 54.6875 
L 13.1875 54.6875 
L 24.421875 12.015625 
L 35.59375 54.6875 
L 46.1875 54.6875 
L 57.421875 12.015625 
L 68.609375 54.6875 
L 77.59375 54.6875 
L 63.28125 0 
L 52.6875 0 
L 40.921875 44.828125 
L 29.109375 0 
L 18.5 0 
z
" id="DejaVuSans-77"/>
    </defs>
    <g transform="translate(2096.775 142.2)scale(0.36 -0.36)">
     <use xlink:href="#DejaVuSans-72"/>
     <use x="41.113281" xlink:href="#DejaVuSans-61"/>
     <use x="102.392578" xlink:href="#DejaVuSans-77"/>
     <use x="184.179688" xlink:href="#DejaVuSans-20"/>
     <use x="215.966797" xlink:href="#DejaVuSans-64"/>
     <use x="279.443359" xlink:href="#DejaVuSans-65"/>
     <use x="340.966797" xlink:href="#DejaVuSans-6c"/>
     <use x="368.75" xlink:href="#DejaVuSans-61"/>
     <use x="430.029297" xlink:href="#DejaVuSans-79"/>
     <use x="489.208984" xlink:href="#DejaVuSans-73"/>
    </g>
   </g>
  </g>
  <g id="text_59">
   <!-- hierarchical clustering dendrograms : sohhom bandyopadhyay -->
   <defs>
    <path d="M 45.40625 27.984375 
Q 45.40625 37.75 41.375 43.109375 
Q 37.359375 48.484375 30.078125 48.484375 
Q 22.859375 48.484375 18.828125 43.109375 
Q 14.796875 37.75 14.796875 27.984375 
Q 14.796875 18.265625 18.828125 12.890625 
Q 22.859375 7.515625 30.078125 7.515625 
Q 37.359375 7.515625 41.375 12.890625 
Q 45.40625 18.265625 45.40625 27.984375 
z
M 54.390625 6.78125 
Q 54.390625 -7.171875 48.1875 -13.984375 
Q 42 -20.796875 29.203125 -20.796875 
Q 24.46875 -20.796875 20.265625 -20.09375 
Q 16.0625 -19.390625 12.109375 -17.921875 
L 12.109375 -9.1875 
Q 16.0625 -11.328125 19.921875 -12.34375 
Q 23.78125 -13.375 27.78125 -13.375 
Q 36.625 -13.375 41.015625 -8.765625 
Q 45.40625 -4.15625 45.40625 5.171875 
L 45.40625 9.625 
Q 42.625 4.78125 38.28125 2.390625 
Q 33.9375 0 27.875 0 
Q 17.828125 0 11.671875 7.65625 
Q 5.515625 15.328125 5.515625 27.984375 
Q 5.515625 40.671875 11.671875 48.328125 
Q 17.828125 56 27.875 56 
Q 33.9375 56 38.28125 53.609375 
Q 42.625 51.21875 45.40625 46.390625 
L 45.40625 54.6875 
L 54.390625 54.6875 
z
" id="DejaVuSans-67"/>
    <path d="M 11.71875 12.40625 
L 22.015625 12.40625 
L 22.015625 0 
L 11.71875 0 
z
M 11.71875 51.703125 
L 22.015625 51.703125 
L 22.015625 39.3125 
L 11.71875 39.3125 
z
" id="DejaVuSans-3a"/>
   </defs>
   <g transform="translate(779.533594 56.393438)scale(0.42 -0.42)">
    <use xlink:href="#DejaVuSans-68"/>
    <use x="63.378906" xlink:href="#DejaVuSans-69"/>
    <use x="91.162109" xlink:href="#DejaVuSans-65"/>
    <use x="152.685547" xlink:href="#DejaVuSans-72"/>
    <use x="193.798828" xlink:href="#DejaVuSans-61"/>
    <use x="255.078125" xlink:href="#DejaVuSans-72"/>
    <use x="296.160156" xlink:href="#DejaVuSans-63"/>
    <use x="351.140625" xlink:href="#DejaVuSans-68"/>
    <use x="414.519531" xlink:href="#DejaVuSans-69"/>
    <use x="442.302734" xlink:href="#DejaVuSans-63"/>
    <use x="497.283203" xlink:href="#DejaVuSans-61"/>
    <use x="558.5625" xlink:href="#DejaVuSans-6c"/>
    <use x="586.345703" xlink:href="#DejaVuSans-20"/>
    <use x="618.132812" xlink:href="#DejaVuSans-63"/>
    <use x="673.113281" xlink:href="#DejaVuSans-6c"/>
    <use x="700.896484" xlink:href="#DejaVuSans-75"/>
    <use x="764.275391" xlink:href="#DejaVuSans-73"/>
    <use x="816.375" xlink:href="#DejaVuSans-74"/>
    <use x="855.583984" xlink:href="#DejaVuSans-65"/>
    <use x="917.107422" xlink:href="#DejaVuSans-72"/>
    <use x="958.220703" xlink:href="#DejaVuSans-69"/>
    <use x="986.003906" xlink:href="#DejaVuSans-6e"/>
    <use x="1049.382812" xlink:href="#DejaVuSans-67"/>
    <use x="1112.859375" xlink:href="#DejaVuSans-20"/>
    <use x="1144.646484" xlink:href="#DejaVuSans-64"/>
    <use x="1208.123047" xlink:href="#DejaVuSans-65"/>
    <use x="1269.646484" xlink:href="#DejaVuSans-6e"/>
    <use x="1333.025391" xlink:href="#DejaVuSans-64"/>
    <use x="1396.501953" xlink:href="#DejaVuSans-72"/>
    <use x="1437.583984" xlink:href="#DejaVuSans-6f"/>
    <use x="1498.765625" xlink:href="#DejaVuSans-67"/>
    <use x="1562.242188" xlink:href="#DejaVuSans-72"/>
    <use x="1603.355469" xlink:href="#DejaVuSans-61"/>
    <use x="1664.634766" xlink:href="#DejaVuSans-6d"/>
    <use x="1762.046875" xlink:href="#DejaVuSans-73"/>
    <use x="1814.146484" xlink:href="#DejaVuSans-20"/>
    <use x="1845.933594" xlink:href="#DejaVuSans-3a"/>
    <use x="1879.625" xlink:href="#DejaVuSans-20"/>
    <use x="1911.412109" xlink:href="#DejaVuSans-73"/>
    <use x="1963.511719" xlink:href="#DejaVuSans-6f"/>
    <use x="2024.693359" xlink:href="#DejaVuSans-68"/>
    <use x="2088.072266" xlink:href="#DejaVuSans-68"/>
    <use x="2151.451172" xlink:href="#DejaVuSans-6f"/>
    <use x="2212.632812" xlink:href="#DejaVuSans-6d"/>
    <use x="2310.044922" xlink:href="#DejaVuSans-20"/>
    <use x="2341.832031" xlink:href="#DejaVuSans-62"/>
    <use x="2405.308594" xlink:href="#DejaVuSans-61"/>
    <use x="2466.587891" xlink:href="#DejaVuSans-6e"/>
    <use x="2529.966797" xlink:href="#DejaVuSans-64"/>
    <use x="2593.443359" xlink:href="#DejaVuSans-79"/>
    <use x="2652.623047" xlink:href="#DejaVuSans-6f"/>
    <use x="2713.804688" xlink:href="#DejaVuSans-70"/>
    <use x="2777.28125" xlink:href="#DejaVuSans-61"/>
    <use x="2838.560547" xlink:href="#DejaVuSans-64"/>
    <use x="2902.037109" xlink:href="#DejaVuSans-68"/>
    <use x="2965.416016" xlink:href="#DejaVuSans-79"/>
    <use x="3024.595703" xlink:href="#DejaVuSans-61"/>
    <use x="3085.875" xlink:href="#DejaVuSans-79"/>
   </g>
  </g>
 </g>
 <defs>
  <clipPath id="pb523e23339">
   <rect height="971.28" width="1330.0175" x="102.905" y="148.2"/>
  </clipPath>
  <clipPath id="pb5ef2da91f">
   <rect height="971.28" width="1330.0175" x="1529.2025" y="148.2"/>
  </clipPath>
 </defs>
</svg>
